<mxfile host="app.diagrams.net" agent="Mozilla/5.0 (Windows NT 10.0; Win64; x64) AppleWebKit/537.36 (KHTML, like Gecko) Chrome/138.0.0.0 Safari/537.36 Edg/138.0.0.0" version="28.0.7">
  <diagram name="Page-1" id="zbgo6ZtN07ztM8hb0fAq">
    <mxGraphModel dx="1034" dy="618" grid="1" gridSize="10" guides="1" tooltips="1" connect="1" arrows="1" fold="1" page="1" pageScale="1" pageWidth="850" pageHeight="1100" math="0" shadow="0">
      <root>
        <mxCell id="0" />
        <mxCell id="1" parent="0" />
        <mxCell id="qIAihnwOr4COVMYzRIPg-1" value="" style="endArrow=none;html=1;rounded=0;fillColor=#60a917;strokeColor=#2D7600;" edge="1" parent="1">
          <mxGeometry width="50" height="50" relative="1" as="geometry">
            <mxPoint x="170" y="140" as="sourcePoint" />
            <mxPoint x="810" y="140" as="targetPoint" />
          </mxGeometry>
        </mxCell>
        <mxCell id="qIAihnwOr4COVMYzRIPg-16" value="Dev" style="edgeLabel;html=1;align=center;verticalAlign=middle;resizable=0;points=[];" vertex="1" connectable="0" parent="qIAihnwOr4COVMYzRIPg-1">
          <mxGeometry x="0.9487" y="3" relative="1" as="geometry">
            <mxPoint as="offset" />
          </mxGeometry>
        </mxCell>
        <mxCell id="qIAihnwOr4COVMYzRIPg-2" value="" style="endArrow=none;html=1;rounded=0;fillColor=#1ba1e2;strokeColor=#006EAF;" edge="1" parent="1">
          <mxGeometry width="50" height="50" relative="1" as="geometry">
            <mxPoint x="170" y="250" as="sourcePoint" />
            <mxPoint x="820" y="250" as="targetPoint" />
          </mxGeometry>
        </mxCell>
        <mxCell id="qIAihnwOr4COVMYzRIPg-17" value="UAT" style="edgeLabel;html=1;align=center;verticalAlign=middle;resizable=0;points=[];" vertex="1" connectable="0" parent="qIAihnwOr4COVMYzRIPg-2">
          <mxGeometry x="0.9034" relative="1" as="geometry">
            <mxPoint as="offset" />
          </mxGeometry>
        </mxCell>
        <mxCell id="qIAihnwOr4COVMYzRIPg-3" value="" style="endArrow=none;html=1;rounded=0;fillColor=#e51400;strokeColor=#B20000;" edge="1" parent="1">
          <mxGeometry width="50" height="50" relative="1" as="geometry">
            <mxPoint x="170" y="350" as="sourcePoint" />
            <mxPoint x="810" y="350" as="targetPoint" />
          </mxGeometry>
        </mxCell>
        <mxCell id="qIAihnwOr4COVMYzRIPg-18" value="Master" style="edgeLabel;html=1;align=center;verticalAlign=middle;resizable=0;points=[];" vertex="1" connectable="0" parent="qIAihnwOr4COVMYzRIPg-3">
          <mxGeometry x="0.8468" y="2" relative="1" as="geometry">
            <mxPoint as="offset" />
          </mxGeometry>
        </mxCell>
        <mxCell id="qIAihnwOr4COVMYzRIPg-6" style="edgeStyle=orthogonalEdgeStyle;rounded=0;orthogonalLoop=1;jettySize=auto;html=1;exitX=0.5;exitY=1;exitDx=0;exitDy=0;" edge="1" parent="1">
          <mxGeometry relative="1" as="geometry">
            <mxPoint x="330" y="140" as="targetPoint" />
            <mxPoint x="440" y="70" as="sourcePoint" />
          </mxGeometry>
        </mxCell>
        <mxCell id="qIAihnwOr4COVMYzRIPg-24" value="Story" style="edgeLabel;html=1;align=center;verticalAlign=middle;resizable=0;points=[];" vertex="1" connectable="0" parent="qIAihnwOr4COVMYzRIPg-6">
          <mxGeometry x="0.8331" y="-2" relative="1" as="geometry">
            <mxPoint as="offset" />
          </mxGeometry>
        </mxCell>
        <mxCell id="qIAihnwOr4COVMYzRIPg-13" style="edgeStyle=orthogonalEdgeStyle;rounded=0;orthogonalLoop=1;jettySize=auto;html=1;exitX=0.5;exitY=1;exitDx=0;exitDy=0;" edge="1" parent="1">
          <mxGeometry relative="1" as="geometry">
            <mxPoint x="580" y="350" as="targetPoint" />
            <mxPoint x="440" y="70" as="sourcePoint" />
            <Array as="points">
              <mxPoint x="580" y="70" />
            </Array>
          </mxGeometry>
        </mxCell>
        <mxCell id="qIAihnwOr4COVMYzRIPg-42" value="Final merge" style="edgeLabel;html=1;align=center;verticalAlign=middle;resizable=0;points=[];" vertex="1" connectable="0" parent="qIAihnwOr4COVMYzRIPg-13">
          <mxGeometry x="0.735" y="-3" relative="1" as="geometry">
            <mxPoint as="offset" />
          </mxGeometry>
        </mxCell>
        <mxCell id="qIAihnwOr4COVMYzRIPg-20" style="edgeStyle=orthogonalEdgeStyle;rounded=0;orthogonalLoop=1;jettySize=auto;html=1;exitX=0.5;exitY=1;exitDx=0;exitDy=0;" edge="1" parent="1">
          <mxGeometry relative="1" as="geometry">
            <mxPoint x="380" y="140" as="targetPoint" />
            <mxPoint x="440" y="70" as="sourcePoint" />
          </mxGeometry>
        </mxCell>
        <mxCell id="qIAihnwOr4COVMYzRIPg-25" value="Bugfix1" style="edgeLabel;html=1;align=center;verticalAlign=middle;resizable=0;points=[];" vertex="1" connectable="0" parent="qIAihnwOr4COVMYzRIPg-20">
          <mxGeometry x="0.7065" relative="1" as="geometry">
            <mxPoint y="1" as="offset" />
          </mxGeometry>
        </mxCell>
        <mxCell id="qIAihnwOr4COVMYzRIPg-22" style="edgeStyle=orthogonalEdgeStyle;rounded=0;orthogonalLoop=1;jettySize=auto;html=1;exitX=0.5;exitY=1;exitDx=0;exitDy=0;" edge="1" parent="1">
          <mxGeometry relative="1" as="geometry">
            <mxPoint x="500" y="140" as="targetPoint" />
            <mxPoint x="440" y="70" as="sourcePoint" />
          </mxGeometry>
        </mxCell>
        <mxCell id="qIAihnwOr4COVMYzRIPg-27" value="Bugfix3" style="edgeLabel;html=1;align=center;verticalAlign=middle;resizable=0;points=[];" vertex="1" connectable="0" parent="qIAihnwOr4COVMYzRIPg-22">
          <mxGeometry x="0.5011" y="-2" relative="1" as="geometry">
            <mxPoint as="offset" />
          </mxGeometry>
        </mxCell>
        <mxCell id="qIAihnwOr4COVMYzRIPg-9" style="edgeStyle=orthogonalEdgeStyle;rounded=0;orthogonalLoop=1;jettySize=auto;html=1;" edge="1" parent="1">
          <mxGeometry relative="1" as="geometry">
            <mxPoint x="350" y="140" as="targetPoint" />
            <mxPoint x="350" y="440" as="sourcePoint" />
            <Array as="points">
              <mxPoint x="350" y="430" />
            </Array>
          </mxGeometry>
        </mxCell>
        <mxCell id="qIAihnwOr4COVMYzRIPg-39" value="Bugfix1" style="edgeLabel;html=1;align=center;verticalAlign=middle;resizable=0;points=[];" vertex="1" connectable="0" parent="qIAihnwOr4COVMYzRIPg-9">
          <mxGeometry x="0.6311" relative="1" as="geometry">
            <mxPoint as="offset" />
          </mxGeometry>
        </mxCell>
        <mxCell id="qIAihnwOr4COVMYzRIPg-19" style="edgeStyle=orthogonalEdgeStyle;rounded=0;orthogonalLoop=1;jettySize=auto;html=1;" edge="1" parent="1">
          <mxGeometry relative="1" as="geometry">
            <mxPoint x="430" y="140" as="targetPoint" />
            <mxPoint x="370" y="440" as="sourcePoint" />
            <Array as="points">
              <mxPoint x="430" y="440" />
              <mxPoint x="430" y="140" />
            </Array>
          </mxGeometry>
        </mxCell>
        <mxCell id="qIAihnwOr4COVMYzRIPg-40" value="Bugfix2" style="edgeLabel;html=1;align=center;verticalAlign=middle;resizable=0;points=[];" vertex="1" connectable="0" parent="qIAihnwOr4COVMYzRIPg-19">
          <mxGeometry x="0.7448" y="3" relative="1" as="geometry">
            <mxPoint as="offset" />
          </mxGeometry>
        </mxCell>
        <mxCell id="qIAihnwOr4COVMYzRIPg-21" style="edgeStyle=orthogonalEdgeStyle;rounded=0;orthogonalLoop=1;jettySize=auto;html=1;" edge="1" parent="1">
          <mxGeometry relative="1" as="geometry">
            <mxPoint x="250" y="140" as="targetPoint" />
            <mxPoint x="250" y="440" as="sourcePoint" />
            <Array as="points">
              <mxPoint x="250" y="440" />
            </Array>
          </mxGeometry>
        </mxCell>
        <mxCell id="qIAihnwOr4COVMYzRIPg-38" value="Story" style="edgeLabel;html=1;align=center;verticalAlign=middle;resizable=0;points=[];" vertex="1" connectable="0" parent="qIAihnwOr4COVMYzRIPg-21">
          <mxGeometry x="0.7468" y="2" relative="1" as="geometry">
            <mxPoint as="offset" />
          </mxGeometry>
        </mxCell>
        <mxCell id="qIAihnwOr4COVMYzRIPg-14" value="" style="endArrow=classic;html=1;rounded=0;" edge="1" parent="1">
          <mxGeometry width="50" height="50" relative="1" as="geometry">
            <mxPoint x="45" y="510" as="sourcePoint" />
            <mxPoint x="835" y="510" as="targetPoint" />
          </mxGeometry>
        </mxCell>
        <mxCell id="qIAihnwOr4COVMYzRIPg-15" value="Time" style="edgeLabel;html=1;align=center;verticalAlign=middle;resizable=0;points=[];" vertex="1" connectable="0" parent="qIAihnwOr4COVMYzRIPg-14">
          <mxGeometry x="0.877" y="3" relative="1" as="geometry">
            <mxPoint as="offset" />
          </mxGeometry>
        </mxCell>
        <mxCell id="qIAihnwOr4COVMYzRIPg-28" value="" style="endArrow=none;html=1;rounded=0;" edge="1" parent="1">
          <mxGeometry width="50" height="50" relative="1" as="geometry">
            <mxPoint x="220" y="440" as="sourcePoint" />
            <mxPoint x="760" y="440" as="targetPoint" />
          </mxGeometry>
        </mxCell>
        <mxCell id="qIAihnwOr4COVMYzRIPg-30" value="Feature2" style="edgeLabel;html=1;align=center;verticalAlign=middle;resizable=0;points=[];" vertex="1" connectable="0" parent="qIAihnwOr4COVMYzRIPg-28">
          <mxGeometry x="0.8017" y="4" relative="1" as="geometry">
            <mxPoint as="offset" />
          </mxGeometry>
        </mxCell>
        <mxCell id="qIAihnwOr4COVMYzRIPg-29" value="" style="endArrow=classic;html=1;rounded=0;" edge="1" parent="1">
          <mxGeometry width="50" height="50" relative="1" as="geometry">
            <mxPoint x="220" y="350" as="sourcePoint" />
            <mxPoint x="220" y="440" as="targetPoint" />
          </mxGeometry>
        </mxCell>
        <mxCell id="qIAihnwOr4COVMYzRIPg-35" value="Create" style="edgeLabel;html=1;align=center;verticalAlign=middle;resizable=0;points=[];" vertex="1" connectable="0" parent="qIAihnwOr4COVMYzRIPg-29">
          <mxGeometry x="0.1333" y="-4" relative="1" as="geometry">
            <mxPoint as="offset" />
          </mxGeometry>
        </mxCell>
        <mxCell id="qIAihnwOr4COVMYzRIPg-32" value="" style="endArrow=none;html=1;rounded=0;" edge="1" parent="1">
          <mxGeometry width="50" height="50" relative="1" as="geometry">
            <mxPoint x="300" y="71" as="sourcePoint" />
            <mxPoint x="750" y="71" as="targetPoint" />
          </mxGeometry>
        </mxCell>
        <mxCell id="qIAihnwOr4COVMYzRIPg-34" value="Feature1" style="edgeLabel;html=1;align=center;verticalAlign=middle;resizable=0;points=[];" vertex="1" connectable="0" parent="qIAihnwOr4COVMYzRIPg-32">
          <mxGeometry x="0.6556" y="1" relative="1" as="geometry">
            <mxPoint as="offset" />
          </mxGeometry>
        </mxCell>
        <mxCell id="qIAihnwOr4COVMYzRIPg-36" value="" style="endArrow=classic;html=1;rounded=0;" edge="1" parent="1">
          <mxGeometry width="50" height="50" relative="1" as="geometry">
            <mxPoint x="302" y="350" as="sourcePoint" />
            <mxPoint x="302" y="70" as="targetPoint" />
          </mxGeometry>
        </mxCell>
        <mxCell id="qIAihnwOr4COVMYzRIPg-37" value="Create" style="edgeLabel;html=1;align=center;verticalAlign=middle;resizable=0;points=[];" vertex="1" connectable="0" parent="qIAihnwOr4COVMYzRIPg-36">
          <mxGeometry x="-0.7429" y="1" relative="1" as="geometry">
            <mxPoint as="offset" />
          </mxGeometry>
        </mxCell>
        <mxCell id="qIAihnwOr4COVMYzRIPg-44" value="" style="endArrow=classic;html=1;rounded=0;" edge="1" parent="1">
          <mxGeometry width="50" height="50" relative="1" as="geometry">
            <mxPoint x="440" y="70" as="sourcePoint" />
            <mxPoint x="440" y="140" as="targetPoint" />
          </mxGeometry>
        </mxCell>
        <mxCell id="qIAihnwOr4COVMYzRIPg-45" value="Bugfix2" style="edgeLabel;html=1;align=center;verticalAlign=middle;resizable=0;points=[];" vertex="1" connectable="0" parent="qIAihnwOr4COVMYzRIPg-44">
          <mxGeometry x="-0.0476" y="-1" relative="1" as="geometry">
            <mxPoint as="offset" />
          </mxGeometry>
        </mxCell>
        <mxCell id="qIAihnwOr4COVMYzRIPg-49" value="" style="shape=link;html=1;rounded=0;" edge="1" parent="1">
          <mxGeometry width="100" relative="1" as="geometry">
            <mxPoint x="190" y="480" as="sourcePoint" />
            <mxPoint x="800" y="480" as="targetPoint" />
          </mxGeometry>
        </mxCell>
        <mxCell id="qIAihnwOr4COVMYzRIPg-50" value="QAEnvironment" style="edgeLabel;html=1;align=center;verticalAlign=middle;resizable=0;points=[];" vertex="1" connectable="0" parent="qIAihnwOr4COVMYzRIPg-49">
          <mxGeometry x="0.9074" y="4" relative="1" as="geometry">
            <mxPoint x="1" as="offset" />
          </mxGeometry>
        </mxCell>
        <mxCell id="qIAihnwOr4COVMYzRIPg-53" value="" style="endArrow=classic;html=1;rounded=0;" edge="1" parent="1">
          <mxGeometry width="50" height="50" relative="1" as="geometry">
            <mxPoint x="280" y="140" as="sourcePoint" />
            <mxPoint x="280" y="480" as="targetPoint" />
          </mxGeometry>
        </mxCell>
        <mxCell id="qIAihnwOr4COVMYzRIPg-54" value="" style="endArrow=classic;html=1;rounded=0;" edge="1" parent="1">
          <mxGeometry width="50" height="50" relative="1" as="geometry">
            <mxPoint x="390" y="140" as="sourcePoint" />
            <mxPoint x="390" y="480" as="targetPoint" />
          </mxGeometry>
        </mxCell>
        <mxCell id="qIAihnwOr4COVMYzRIPg-56" value="" style="shape=link;html=1;rounded=0;" edge="1" parent="1">
          <mxGeometry width="100" relative="1" as="geometry">
            <mxPoint x="160" y="20" as="sourcePoint" />
            <mxPoint x="830" y="20" as="targetPoint" />
          </mxGeometry>
        </mxCell>
        <mxCell id="qIAihnwOr4COVMYzRIPg-57" value="UATEnvironment" style="edgeLabel;html=1;align=center;verticalAlign=middle;resizable=0;points=[];" vertex="1" connectable="0" parent="qIAihnwOr4COVMYzRIPg-56">
          <mxGeometry x="0.9087" y="-1" relative="1" as="geometry">
            <mxPoint as="offset" />
          </mxGeometry>
        </mxCell>
        <mxCell id="qIAihnwOr4COVMYzRIPg-63" value="" style="endArrow=classic;html=1;rounded=0;" edge="1" parent="1">
          <mxGeometry width="50" height="50" relative="1" as="geometry">
            <mxPoint x="460" y="70" as="sourcePoint" />
            <mxPoint x="460" y="250" as="targetPoint" />
          </mxGeometry>
        </mxCell>
        <mxCell id="qIAihnwOr4COVMYzRIPg-64" value="Merge" style="edgeLabel;html=1;align=center;verticalAlign=middle;resizable=0;points=[];" vertex="1" connectable="0" parent="qIAihnwOr4COVMYzRIPg-63">
          <mxGeometry x="0.5121" y="-1" relative="1" as="geometry">
            <mxPoint as="offset" />
          </mxGeometry>
        </mxCell>
        <mxCell id="qIAihnwOr4COVMYzRIPg-65" value="" style="endArrow=classic;html=1;rounded=0;" edge="1" parent="1">
          <mxGeometry width="50" height="50" relative="1" as="geometry">
            <mxPoint x="465" y="250" as="sourcePoint" />
            <mxPoint x="465" y="20" as="targetPoint" />
          </mxGeometry>
        </mxCell>
        <mxCell id="qIAihnwOr4COVMYzRIPg-66" value="" style="endArrow=classic;html=1;rounded=0;" edge="1" parent="1">
          <mxGeometry width="50" height="50" relative="1" as="geometry">
            <mxPoint x="510" y="70" as="sourcePoint" />
            <mxPoint x="510" y="250" as="targetPoint" />
          </mxGeometry>
        </mxCell>
        <mxCell id="qIAihnwOr4COVMYzRIPg-67" value="Merge" style="edgeLabel;html=1;align=center;verticalAlign=middle;resizable=0;points=[];" vertex="1" connectable="0" parent="qIAihnwOr4COVMYzRIPg-66">
          <mxGeometry x="0.2137" y="-1" relative="1" as="geometry">
            <mxPoint as="offset" />
          </mxGeometry>
        </mxCell>
        <mxCell id="qIAihnwOr4COVMYzRIPg-68" value="" style="endArrow=classic;html=1;rounded=0;" edge="1" parent="1">
          <mxGeometry width="50" height="50" relative="1" as="geometry">
            <mxPoint x="520" y="250" as="sourcePoint" />
            <mxPoint x="520" y="20" as="targetPoint" />
          </mxGeometry>
        </mxCell>
        <mxCell id="qIAihnwOr4COVMYzRIPg-69" value="" style="endArrow=classic;html=1;rounded=0;" edge="1" parent="1">
          <mxGeometry width="50" height="50" relative="1" as="geometry">
            <mxPoint x="480" y="440" as="sourcePoint" />
            <mxPoint x="480" y="250" as="targetPoint" />
          </mxGeometry>
        </mxCell>
        <mxCell id="qIAihnwOr4COVMYzRIPg-70" value="Merge" style="edgeLabel;html=1;align=center;verticalAlign=middle;resizable=0;points=[];" vertex="1" connectable="0" parent="qIAihnwOr4COVMYzRIPg-69">
          <mxGeometry x="0.3615" y="1" relative="1" as="geometry">
            <mxPoint as="offset" />
          </mxGeometry>
        </mxCell>
        <mxCell id="qIAihnwOr4COVMYzRIPg-71" value="" style="endArrow=classic;html=1;rounded=0;" edge="1" parent="1">
          <mxGeometry width="50" height="50" relative="1" as="geometry">
            <mxPoint x="450" y="140" as="sourcePoint" />
            <mxPoint x="450" y="479.2857142857143" as="targetPoint" />
          </mxGeometry>
        </mxCell>
      </root>
    </mxGraphModel>
  </diagram>
</mxfile>
